<mxfile host="app.diagrams.net" agent="Mozilla/5.0 (Windows NT 10.0; Win64; x64; rv:131.0) Gecko/20100101 Firefox/131.0" version="24.8.2">
  <diagram name="Page-1" id="Ytup9a6gZVA8kIjugd9_">
    <mxGraphModel dx="868" dy="523" grid="1" gridSize="10" guides="1" tooltips="1" connect="1" arrows="1" fold="1" page="1" pageScale="1" pageWidth="850" pageHeight="1100" math="0" shadow="0">
      <root>
        <mxCell id="0" />
        <mxCell id="1" parent="0" />
        <mxCell id="andPCD4EqAmCRJvIqevk-2" value="" style="rounded=1;whiteSpace=wrap;html=1;fillColor=#ffe6cc;strokeColor=#d79b00;" vertex="1" parent="1">
          <mxGeometry x="365" y="220" width="120" height="60" as="geometry" />
        </mxCell>
        <mxCell id="andPCD4EqAmCRJvIqevk-3" value="" style="curved=1;endArrow=classic;html=1;rounded=0;exitX=1;exitY=1;exitDx=0;exitDy=0;fillColor=#e1d5e7;strokeColor=#9673a6;" edge="1" parent="1" source="andPCD4EqAmCRJvIqevk-2">
          <mxGeometry width="50" height="50" relative="1" as="geometry">
            <mxPoint x="480" y="270" as="sourcePoint" />
            <mxPoint x="530" y="370" as="targetPoint" />
            <Array as="points">
              <mxPoint x="550" y="280" />
              <mxPoint x="570" y="320" />
            </Array>
          </mxGeometry>
        </mxCell>
        <mxCell id="andPCD4EqAmCRJvIqevk-4" value="" style="rounded=1;whiteSpace=wrap;html=1;fillColor=#e1d5e7;strokeColor=#9673a6;" vertex="1" parent="1">
          <mxGeometry x="410" y="370" width="120" height="60" as="geometry" />
        </mxCell>
      </root>
    </mxGraphModel>
  </diagram>
</mxfile>
